<?xml version="1.0" encoding="UTF-8"?>
<svg xmlns="http://www.w3.org/2000/svg" width="205" height="58" viewBox="0 0 205 58" fill="none">
  <path d="M55.2522 22.928L34.7622 2.44803C33.1928 0.880485 31.0653 0 28.8472 0C26.629 0 24.5016 0.880485 22.9322 2.44803L2.45218 22.928C1.6748 23.7045 1.0581 24.6265 0.637339 25.6415C0.216574 26.6564 0 27.7443 0 28.843C0 29.9417 0.216574 31.0297 0.637339 32.0446C1.0581 33.0596 1.6748 33.9816 2.45218 34.758L22.9322 55.248C24.5016 56.8156 26.629 57.6961 28.8472 57.6961C31.0653 57.6961 33.1928 56.8156 34.7622 55.248L55.2522 34.758C56.8173 33.1873 57.6961 31.0604 57.6961 28.843C57.6961 26.6257 56.8173 24.4987 55.2522 22.928ZM25.2522 35.088L33.7122 26.628C35.4504 28.9783 36.2877 31.8742 36.072 34.7894C35.8563 37.7047 34.6019 40.4458 32.5367 42.5146C30.4715 44.5835 27.7326 45.8427 24.8177 46.0636C21.9028 46.2844 19.0055 45.4521 16.6522 43.718L25.2522 35.088ZM32.5322 22.738L24.0522 31.218C22.3975 29.0879 21.5034 26.4653 21.5122 23.768C21.507 22.7944 21.6211 21.8238 21.8522 20.878C22.3305 18.8948 23.298 17.0631 24.6665 15.5501C26.035 14.0371 27.7608 12.8911 29.6862 12.2169C31.6116 11.5426 33.6753 11.3615 35.6887 11.6901C37.7021 12.0187 39.6011 12.8465 41.2122 14.098L32.5322 22.738ZM3.50218 28.848C3.50144 27.5586 4.0121 26.3215 4.92218 25.408L25.4122 4.91803C26.3265 4.00937 27.5631 3.49936 28.8522 3.49936C30.1412 3.49936 31.3779 4.00937 32.2922 4.91803L35.4322 8.05803C34.8822 7.99803 34.3222 7.99803 33.7522 7.99803C30.2219 8.0002 26.7936 9.18239 24.0123 11.3567C21.231 13.531 19.2563 16.5726 18.4022 19.998C17.8305 22.3746 17.8155 24.8512 18.3585 27.2345C18.9014 29.6178 19.9875 31.8435 21.5322 33.738L14.0022 41.328L5.00218 32.328C4.53229 31.8777 4.15744 31.3376 3.89981 30.7399C3.64217 30.1422 3.50696 29.4989 3.50218 28.848ZM52.7722 32.288L32.2922 52.768C31.8414 53.2216 31.3055 53.5815 30.7151 53.8271C30.1247 54.0727 29.4916 54.1991 28.8522 54.1991C28.2128 54.1991 27.5796 54.0727 26.9893 53.8271C26.3989 53.5815 25.8629 53.2216 25.4122 52.768L22.2722 49.638C22.8222 49.638 23.3822 49.728 23.9522 49.728C26.925 49.7254 29.8368 48.8842 32.3529 47.301C34.8691 45.7177 36.8875 43.4567 38.1763 40.7778C39.4651 38.0989 39.972 35.1107 39.6387 32.1566C39.3054 29.2026 38.1455 26.4024 36.2922 24.078L43.8722 16.498L52.7722 25.408C53.2257 25.8588 53.5856 26.3948 53.8312 26.9851C54.0768 27.5755 54.2033 28.2086 54.2033 28.848C54.2033 29.4875 54.0768 30.1206 53.8312 30.7109C53.5856 31.3013 53.2257 31.8373 52.7722 32.288Z" fill="#915FF2"></path>
  <path d="M70.4921 27.298L72.6121 24.768C72.6725 24.6961 72.7586 24.6507 72.852 24.6413C72.9454 24.632 73.0387 24.6595 73.1121 24.718C74.6762 26.0806 76.6683 26.852 78.7421 26.898C80.5121 26.898 81.5921 26.188 81.5921 25.038V24.998C81.5921 23.898 80.9121 23.328 77.5921 22.488C73.5921 21.488 71.0321 20.368 71.0321 16.488V16.438C71.0321 12.848 73.9121 10.438 77.9521 10.438C80.4889 10.3912 82.9692 11.1898 85.0021 12.708C85.0786 12.764 85.1299 12.8479 85.1449 12.9415C85.1599 13.0352 85.1373 13.1309 85.0821 13.208L83.2621 15.898C83.2359 15.9374 83.2022 15.9713 83.1628 15.9977C83.1235 16.0241 83.0793 16.0425 83.0329 16.0518C82.9864 16.061 82.9386 16.0611 82.8921 16.0519C82.8457 16.0426 82.8015 16.0243 82.7621 15.998C81.3558 14.9518 79.6724 14.3431 77.9221 14.248C76.2521 14.248 75.3821 15.008 75.3821 15.968V15.998C75.3821 17.298 76.2221 17.718 79.6421 18.598C83.6421 19.598 85.9121 21.078 85.9121 24.528V24.578C85.9121 28.508 82.9121 30.708 78.6521 30.708C75.6879 30.7181 72.8154 29.6803 70.5421 27.778C70.4758 27.7184 70.434 27.6363 70.4248 27.5476C70.4156 27.4589 70.4395 27.37 70.4921 27.298Z" fill="#2A1467"></path>
  <path d="M106.912 15.318H110.482C110.578 15.318 110.669 15.3559 110.737 15.4234C110.804 15.4909 110.842 15.5825 110.842 15.678V17.468C111.327 16.7207 111.988 16.1043 112.768 15.6735C113.548 15.2427 114.421 15.0107 115.312 14.998C116.177 14.9498 117.038 15.1502 117.793 15.5755C118.548 16.0008 119.165 16.6332 119.572 17.398C120.165 16.6401 120.924 16.0293 121.791 15.613C122.658 15.1967 123.61 14.9863 124.572 14.998C127.762 14.998 129.682 16.918 129.682 20.558V30.058C129.682 30.1535 129.644 30.245 129.577 30.3125C129.509 30.3801 129.418 30.418 129.322 30.418H125.752C125.657 30.418 125.565 30.3801 125.497 30.3125C125.43 30.245 125.392 30.1535 125.392 30.058V21.998C125.392 19.998 124.492 18.928 122.882 18.928C121.272 18.928 120.282 19.928 120.282 21.998V30.098C120.282 30.1935 120.244 30.285 120.177 30.3525C120.109 30.4201 120.018 30.458 119.922 30.458H116.352C116.257 30.458 116.165 30.4201 116.097 30.3525C116.03 30.285 115.992 30.1935 115.992 30.098V21.998C115.992 19.998 115.082 18.928 113.472 18.928C111.862 18.928 110.872 19.928 110.872 21.998V30.098C110.872 30.1935 110.834 30.285 110.767 30.3525C110.699 30.4201 110.608 30.458 110.512 30.458H106.942C106.847 30.458 106.755 30.4201 106.687 30.3525C106.62 30.285 106.582 30.1935 106.582 30.098V15.678C106.582 15.5875 106.615 15.5002 106.677 15.4335C106.738 15.3668 106.822 15.3255 106.912 15.318Z" fill="#2A1467"></path>
  <path d="M152.812 15.318H156.372C156.469 15.318 156.561 15.3556 156.631 15.4228C156.7 15.49 156.74 15.5816 156.742 15.678V18.368C157.612 16.278 159.022 14.928 161.572 15.038V19.528H161.342C158.492 19.528 156.742 21.248 156.742 24.868V30.098C156.74 30.1944 156.7 30.2859 156.631 30.3532C156.561 30.4204 156.469 30.458 156.372 30.458H152.442V15.678C152.445 15.5816 152.485 15.49 152.554 15.4228C152.623 15.3556 152.716 15.318 152.812 15.318Z" fill="#2A1467"></path>
  <path d="M181.503 15.3181H185.073C185.168 15.3181 185.26 15.356 185.327 15.4235C185.395 15.491 185.433 15.5826 185.433 15.6781V17.4681C185.916 16.7221 186.576 16.1067 187.354 15.6759C188.132 15.2452 189.004 15.0124 189.893 14.9981C190.758 14.9487 191.619 15.1486 192.374 15.574C193.129 15.9994 193.746 16.6324 194.153 17.3981C194.745 16.6402 195.505 16.0294 196.372 15.6131C197.239 15.1968 198.191 14.9864 199.153 14.9981C202.353 14.9981 204.273 16.9181 204.273 20.5581V30.0581C204.27 30.1545 204.23 30.246 204.161 30.3133C204.092 30.3805 203.999 30.4181 203.903 30.4181H200.343C200.246 30.4181 200.154 30.3805 200.084 30.3133C200.015 30.246 199.975 30.1545 199.973 30.0581V21.9981C199.973 19.9981 199.073 18.9281 197.463 18.9281C195.853 18.9281 194.863 19.9281 194.863 21.9981V30.0981C194.863 30.1936 194.825 30.2851 194.757 30.3526C194.69 30.4202 194.598 30.4581 194.503 30.4581H190.903C190.807 30.4581 190.716 30.4202 190.648 30.3526C190.581 30.2851 190.543 30.1936 190.543 30.0981V21.9981C190.543 19.9981 189.643 18.9281 188.033 18.9281C186.423 18.9281 185.433 19.9281 185.433 21.9981V30.0981C185.433 30.1936 185.395 30.2851 185.327 30.3526C185.26 30.4202 185.168 30.4581 185.073 30.4581H181.503C181.407 30.4581 181.316 30.4202 181.248 30.3526C181.181 30.2851 181.143 30.1936 181.143 30.0981V15.6781C181.143 15.5826 181.181 15.491 181.248 15.4235C181.316 15.356 181.407 15.3181 181.503 15.3181Z" fill="#2A1467"></path>
  <path d="M100.352 23.4779V23.6979C100.22 24.47 99.8741 25.1897 99.3543 25.7757C98.8345 26.3618 98.1612 26.7908 97.4104 27.0143C96.6597 27.2377 95.8614 27.2468 95.1057 27.0405C94.3501 26.8341 93.6672 26.4205 93.1342 25.8465C92.6012 25.2724 92.2394 24.5607 92.0897 23.7919C91.9399 23.023 92.0081 22.2276 92.2866 21.4954C92.5652 20.7633 93.0429 20.1236 93.6658 19.6487C94.2888 19.1738 95.0321 18.8826 95.8119 18.8079C95.945 18.7977 96.0787 18.7977 96.2119 18.8079C96.8207 18.8112 97.4214 18.9477 97.9719 19.2079L95.4819 21.4879C95.4193 21.5562 95.3846 21.6454 95.3846 21.7379C95.3846 21.8305 95.4193 21.9197 95.4819 21.9879L97.4819 24.3779C97.5155 24.413 97.5558 24.441 97.6005 24.46C97.6452 24.4791 97.6933 24.4889 97.7419 24.4889C97.7905 24.4889 97.8385 24.4791 97.8832 24.46C97.9279 24.441 97.9683 24.413 98.0019 24.3779L103.332 19.2679L103.232 19.0879C102.87 18.4385 102.419 17.8428 101.892 17.3179C101.606 17.0278 101.294 16.7635 100.962 16.5279C99.9521 15.7873 98.7825 15.294 97.5473 15.0879C96.3121 14.8818 95.0458 14.9685 93.8502 15.341C92.6546 15.7136 91.5632 16.3617 90.6638 17.233C89.7644 18.1044 89.0821 19.1748 88.6719 20.3579C88.3671 21.2054 88.2049 22.0975 88.1919 22.9979C88.1769 23.2577 88.1769 23.5182 88.1919 23.7779C88.3272 25.2026 88.8455 26.564 89.6919 27.7179C89.9363 28.0495 90.2036 28.3636 90.4919 28.6579C91.0314 29.1849 91.6404 29.6357 92.3019 29.9979C93.462 30.6452 94.7651 30.9934 96.0934 31.011C97.4218 31.0286 98.7337 30.7152 99.9106 30.0989C101.087 29.4827 102.092 28.5831 102.835 27.4813C103.577 26.3795 104.033 25.1102 104.162 23.7879V23.4979H100.322L100.352 23.4779Z" fill="#2A1467"></path>
  <path d="M178.592 23.4779H175.002V23.6979C174.869 24.4695 174.524 25.1887 174.005 25.7745C173.485 26.3602 172.813 26.7891 172.062 27.0128C171.312 27.2364 170.514 27.246 169.759 27.0403C169.004 26.8347 168.321 26.422 167.787 25.8489C167.254 25.2757 166.892 24.565 166.741 23.7968C166.59 23.0286 166.657 22.2336 166.934 21.5014C167.211 20.7692 167.687 20.129 168.309 19.6531C168.931 19.1772 169.673 18.8844 170.452 18.8079C170.585 18.7977 170.719 18.7977 170.852 18.8079C171.461 18.8112 172.061 18.9477 172.612 19.2079L170.122 21.4879C170.059 21.5562 170.025 21.6454 170.025 21.7379C170.025 21.8305 170.059 21.9197 170.122 21.9879L172.122 24.3779C172.155 24.413 172.196 24.441 172.24 24.46C172.285 24.4791 172.333 24.4889 172.382 24.4889C172.43 24.4889 172.479 24.4791 172.523 24.46C172.568 24.441 172.608 24.413 172.642 24.3779L178.002 19.2679L177.902 19.0879C177.54 18.4385 177.089 17.8428 176.562 17.3179C176.276 17.0278 175.964 16.7635 175.632 16.5279C174.622 15.7873 173.452 15.294 172.217 15.0879C170.982 14.8818 169.716 14.9685 168.52 15.341C167.325 15.7136 166.233 16.3617 165.334 17.233C164.434 18.1044 163.752 19.1748 163.342 20.3579C163.052 21.2045 162.903 22.0931 162.902 22.9879C162.887 23.2477 162.887 23.5082 162.902 23.7679C163.037 25.1926 163.555 26.554 164.402 27.7079C164.646 28.0395 164.914 28.3536 165.202 28.6479C165.738 29.1776 166.343 29.6318 167.002 29.9979C168.162 30.6452 169.465 30.9934 170.793 31.011C172.122 31.0286 173.434 30.7152 174.611 30.0989C175.787 29.4827 176.792 28.5831 177.535 27.4813C178.277 26.3795 178.733 25.1102 178.862 23.7879V23.4979L178.592 23.4779Z" fill="#2A1467"></path>
  <path d="M142.052 14.998H141.162C139.827 15.07 138.53 15.4757 137.392 16.178V10.088C137.392 9.9916 137.355 9.89897 137.287 9.82986C137.22 9.76075 137.129 9.72062 137.032 9.71802H133.892C133.796 9.72062 133.704 9.76075 133.637 9.82986C133.57 9.89897 133.532 9.9916 133.532 10.088V30.488H137.392V29.788C138.428 30.4292 139.597 30.8253 140.81 30.946C142.022 31.0667 143.246 30.9089 144.388 30.4846C145.53 30.0603 146.56 29.3807 147.4 28.4977C148.239 27.6147 148.866 26.5516 149.232 25.3895C149.599 24.2274 149.694 22.997 149.513 21.7922C149.331 20.5874 148.876 19.44 148.184 18.4376C147.491 17.4352 146.579 16.6043 145.516 16.0082C144.453 15.4121 143.269 15.0666 142.052 14.998ZM141.602 27.188C140.541 27.1886 139.519 26.7864 138.743 26.0627C137.966 25.3389 137.494 24.3475 137.42 23.2887C137.346 22.2299 137.677 21.1826 138.346 20.3584C139.014 19.5341 139.971 18.9943 141.022 18.848C141.41 18.7947 141.804 18.7947 142.192 18.848C143.244 18.9944 144.202 19.5349 144.87 20.3603C145.539 21.1856 145.869 22.2341 145.794 23.2937C145.719 24.3533 145.245 25.3449 144.467 26.0678C143.688 26.7908 142.664 27.1912 141.602 27.188Z" fill="#2A1467"></path>
  <path d="M74.6517 47.8381H71.2617V41.8381H74.6517V42.5681H72.1117V44.3581H74.5017V44.9981H72.1117V47.0681H74.6517V47.8381Z" fill="#26086B"></path>
  <path d="M78.3518 43.2079C78.7903 43.1776 79.2236 43.3173 79.5618 43.5979C79.7181 43.7683 79.8378 43.9689 79.9135 44.1873C79.9892 44.4058 80.0192 44.6374 80.0018 44.8679V47.8679H79.1718V44.9979C79.1951 44.7044 79.1097 44.4126 78.9318 44.1779C78.8395 44.0788 78.7257 44.002 78.5992 43.9535C78.4727 43.905 78.3368 43.886 78.2018 43.8979C78.0131 43.8766 77.8221 43.9039 77.647 43.9775C77.4719 44.051 77.3186 44.1682 77.2018 44.3179C76.9909 44.6847 76.8935 45.1058 76.9218 45.5279V47.8479H76.0918V43.2879H76.7418L76.8618 43.9279C76.9522 43.7676 77.079 43.6306 77.2318 43.5279C77.3778 43.4166 77.5443 43.335 77.7218 43.2879C77.9258 43.2259 78.1388 43.1989 78.3518 43.2079Z" fill="#26086B"></path>
  <path d="M83.2318 47.248C83.3516 47.2579 83.472 47.2579 83.5918 47.248C83.7004 47.2297 83.8074 47.2029 83.9118 47.168V47.798C83.7891 47.8472 83.6618 47.884 83.5318 47.908C83.3755 47.9233 83.2181 47.9233 83.0618 47.908C82.8285 47.9133 82.5967 47.869 82.3818 47.778C82.1787 47.6916 82.01 47.5404 81.9018 47.348C81.7696 47.0813 81.7077 46.7853 81.7218 46.488V43.928H81.0918V43.538L81.7518 43.238L82.0418 42.238H82.5618V43.238H83.8718V43.878H82.5618V46.428C82.5454 46.6373 82.6098 46.8449 82.7418 47.008C82.8007 47.0817 82.8752 47.1414 82.9599 47.1829C83.0447 47.2244 83.1375 47.2466 83.2318 47.248Z" fill="#26086B"></path>
  <path d="M85.5522 41.568C85.6751 41.5625 85.7959 41.6016 85.8922 41.678C85.9419 41.7273 85.9801 41.7869 86.0043 41.8525C86.0285 41.9182 86.038 41.9883 86.0322 42.058C86.0373 42.1277 86.0275 42.1976 86.0033 42.2632C85.9792 42.3287 85.9413 42.3883 85.8922 42.438C85.7933 42.5096 85.6743 42.5481 85.5522 42.548C85.4296 42.5518 85.3094 42.5129 85.2122 42.438C85.1615 42.3896 85.1224 42.3301 85.0982 42.2643C85.0739 42.1984 85.065 42.1278 85.0722 42.058C85.0643 41.9881 85.0728 41.9174 85.0971 41.8514C85.1214 41.7854 85.1608 41.726 85.2122 41.678C85.3072 41.599 85.429 41.5596 85.5522 41.568ZM85.9522 43.288V47.838H85.1222V43.288H85.9522Z" fill="#26086B"></path>
  <path d="M89.2826 47.248C89.4024 47.2579 89.5228 47.2579 89.6426 47.248C89.7512 47.2297 89.8581 47.2029 89.9626 47.168V47.798C89.8399 47.8472 89.7126 47.884 89.5826 47.908C89.4263 47.9233 89.2689 47.9233 89.1126 47.908C88.8793 47.9133 88.6475 47.869 88.4326 47.778C88.2295 47.6916 88.0607 47.5404 87.9526 47.348C87.8204 47.0813 87.7585 46.7853 87.7726 46.488V43.928H87.1426V43.538L87.8026 43.238L88.0926 42.238H88.6126V43.238H89.9226V43.878H88.6126V46.428C88.5961 46.6373 88.6606 46.8449 88.7926 47.008C88.8515 47.0817 88.926 47.1414 89.0107 47.1829C89.0954 47.2244 89.1883 47.2466 89.2826 47.248Z" fill="#26086B"></path>
  <path d="M93.0524 43.2079C93.5036 43.1721 93.9522 43.3038 94.3124 43.5779C94.4622 43.7335 94.5772 43.9192 94.6496 44.1227C94.722 44.3261 94.7502 44.5427 94.7324 44.7579V47.8379H94.1324L94.0024 47.1779C93.8846 47.3289 93.7504 47.4664 93.6024 47.5879C93.4581 47.6984 93.2957 47.783 93.1224 47.8379C92.907 47.8941 92.685 47.921 92.4624 47.9179C92.211 47.9225 91.9616 47.8713 91.7324 47.7679C91.5216 47.6717 91.3441 47.5151 91.2224 47.3179C91.093 47.0862 91.0307 46.8231 91.0424 46.5579C91.0332 46.3521 91.0771 46.1474 91.1699 45.9635C91.2628 45.7796 91.4014 45.6227 91.5724 45.5079C92.0669 45.233 92.627 45.0982 93.1924 45.1179H93.9724V44.8679C93.9852 44.7332 93.9706 44.5972 93.9293 44.4683C93.8881 44.3394 93.8211 44.2202 93.7324 44.1179C93.5502 43.9601 93.3129 43.881 93.0724 43.8979C92.8452 43.8953 92.619 43.9291 92.4024 43.9979C92.1912 44.0658 91.9842 44.1459 91.7824 44.2379L91.5124 43.6379C91.7498 43.5217 91.9975 43.4279 92.2524 43.3579C92.5122 43.2764 92.7807 43.226 93.0524 43.2079ZM93.9024 45.6279H93.2724C92.8857 45.6126 92.5021 45.7025 92.1624 45.8879C92.0598 45.9617 91.977 46.0596 91.9212 46.1729C91.8654 46.2863 91.8383 46.4116 91.8424 46.5379C91.8328 46.6375 91.8478 46.738 91.8862 46.8304C91.9246 46.9228 91.9851 47.0044 92.0624 47.0679C92.2292 47.1921 92.435 47.2524 92.6424 47.2379C92.9736 47.2507 93.2979 47.1403 93.5524 46.9279C93.6749 46.8077 93.7696 46.6622 93.8301 46.5016C93.8905 46.3409 93.9152 46.1691 93.9024 45.9979V45.6279Z" fill="#26086B"></path>
  <path d="M98.0023 47.248C98.1221 47.2579 98.2425 47.2579 98.3623 47.248C98.4709 47.2297 98.5779 47.2029 98.6823 47.168V47.798C98.5596 47.8472 98.4323 47.884 98.3023 47.908C98.146 47.9233 97.9886 47.9233 97.8323 47.908C97.599 47.9133 97.3672 47.869 97.1523 47.778C96.9492 47.6916 96.7805 47.5404 96.6723 47.348C96.5401 47.0813 96.4782 46.7853 96.4923 46.488V43.928H95.8623V43.538L96.5223 43.238L96.8123 42.238H97.3323V43.238H98.6423V43.878H97.3123V46.428C97.2959 46.6373 97.3603 46.8449 97.4923 47.008C97.5534 47.0843 97.6311 47.1456 97.7195 47.1872C97.8079 47.2288 97.9046 47.2496 98.0023 47.248Z" fill="#26086B"></path>
  <path d="M103.692 47.918C103.439 47.9264 103.187 47.8777 102.955 47.7756C102.723 47.6735 102.517 47.5205 102.352 47.328C101.989 46.8199 101.816 46.2006 101.862 45.578C101.819 44.9479 101.995 44.3224 102.362 43.808C102.526 43.6117 102.733 43.4556 102.967 43.3516C103.201 43.2476 103.456 43.1985 103.712 43.208C103.919 43.204 104.125 43.2344 104.322 43.298C104.488 43.3548 104.644 43.4393 104.782 43.548C104.904 43.6531 105.012 43.7742 105.102 43.908H105.152C105.144 43.7881 105.144 43.6678 105.152 43.548C105.143 43.4114 105.143 43.2745 105.152 43.138V41.408H105.982V47.838H105.322L105.182 47.208C105.092 47.3418 104.984 47.4628 104.862 47.568C104.724 47.6798 104.569 47.7677 104.402 47.828C104.173 47.902 103.932 47.9325 103.692 47.918ZM103.882 47.238C104.067 47.2649 104.256 47.2442 104.431 47.1777C104.606 47.1112 104.761 47.0012 104.882 46.858C105.095 46.5099 105.196 46.1052 105.172 45.698V45.578C105.198 45.1444 105.105 44.712 104.902 44.328C104.791 44.1707 104.639 44.0467 104.463 43.9692C104.287 43.8917 104.093 43.8636 103.902 43.888C103.73 43.8821 103.56 43.9203 103.408 43.9991C103.256 44.078 103.126 44.1946 103.032 44.338C102.819 44.7226 102.719 45.1591 102.742 45.598C102.718 46.0241 102.819 46.448 103.032 46.818C103.128 46.9528 103.256 47.0618 103.404 47.1351C103.552 47.2084 103.716 47.2437 103.882 47.238Z" fill="#26086B"></path>
  <path d="M108.322 41.7981L108.162 43.9981H107.642L107.482 41.8181L108.322 41.7981Z" fill="#26086B"></path>
  <path d="M111.372 43.2081C111.82 43.1709 112.266 43.3029 112.622 43.5781C112.772 43.7336 112.887 43.9193 112.959 44.1228C113.032 44.3263 113.06 44.5428 113.042 44.7581V47.8381H112.452L112.292 47.1781C112.177 47.3287 112.047 47.4662 111.902 47.5881C111.758 47.6986 111.595 47.7831 111.422 47.8381C111.206 47.8942 110.984 47.9211 110.762 47.9181C110.51 47.9227 110.261 47.8714 110.032 47.7681C109.819 47.6746 109.641 47.5173 109.522 47.3181C109.393 47.0863 109.33 46.8232 109.342 46.5581C109.33 46.3518 109.372 46.1461 109.465 45.9616C109.558 45.7772 109.699 45.6207 109.872 45.5081C110.361 45.2295 110.919 45.0944 111.482 45.1181H112.272V44.8681C112.285 44.7333 112.27 44.5974 112.229 44.4685C112.188 44.3395 112.121 44.2203 112.032 44.1181C111.849 43.9612 111.612 43.8822 111.372 43.8981C111.145 43.8947 110.918 43.9285 110.702 43.9981C110.49 44.0642 110.283 44.1444 110.082 44.2381L109.812 43.6381C110.047 43.5234 110.291 43.4298 110.542 43.3581C110.812 43.2755 111.09 43.2252 111.372 43.2081ZM112.222 45.6281H111.582C111.198 45.6136 110.818 45.7034 110.482 45.8881C110.378 45.9606 110.294 46.0582 110.238 46.1719C110.182 46.2855 110.156 46.4115 110.162 46.5381C110.154 46.6366 110.168 46.7358 110.205 46.8277C110.241 46.9197 110.298 47.002 110.372 47.0681C110.539 47.1907 110.745 47.2508 110.952 47.2381C111.283 47.2528 111.608 47.1421 111.862 46.9281C111.986 46.8111 112.083 46.6678 112.146 46.5087C112.208 46.3496 112.234 46.1785 112.222 46.0081V45.6281Z" fill="#26086B"></path>
  <path d="M116.542 47.9181C116.164 47.9291 115.789 47.8431 115.452 47.6681C115.131 47.4982 114.875 47.2277 114.722 46.8981C114.533 46.4884 114.443 46.0392 114.462 45.5881C114.447 45.1232 114.539 44.6611 114.732 44.2381C114.9 43.9028 115.169 43.6295 115.502 43.4581C115.85 43.2854 116.234 43.1996 116.622 43.2081C116.858 43.2051 117.093 43.2286 117.322 43.2781C117.51 43.3184 117.691 43.3822 117.862 43.4681L117.612 44.1381C117.453 44.0729 117.29 44.0194 117.122 43.9781C116.956 43.9316 116.785 43.9081 116.612 43.9081C116.356 43.8979 116.102 43.964 115.882 44.0981C115.688 44.2387 115.538 44.4334 115.452 44.6581C115.354 44.9545 115.306 45.2657 115.312 45.5781C115.306 45.8807 115.354 46.182 115.452 46.4681C115.535 46.6918 115.681 46.8865 115.872 47.0281C116.081 47.1621 116.325 47.2285 116.572 47.2181C116.795 47.2186 117.017 47.1917 117.232 47.1381C117.417 47.0802 117.597 47.0101 117.772 46.9281V47.6581C117.605 47.7469 117.427 47.8141 117.242 47.8581C117.012 47.9019 116.777 47.922 116.542 47.9181Z" fill="#26086B"></path>
  <path d="M120.912 47.918C120.531 47.9277 120.152 47.8418 119.812 47.668C119.494 47.4952 119.238 47.2256 119.082 46.898C118.736 46.0453 118.736 45.0908 119.082 44.238C119.25 43.9027 119.519 43.6294 119.852 43.458C120.2 43.2842 120.584 43.1983 120.972 43.208C121.204 43.2046 121.436 43.2281 121.662 43.278C121.853 43.3167 122.038 43.3806 122.212 43.468L121.962 44.138C121.8 44.0713 121.633 44.0178 121.462 43.978C121.3 43.9316 121.132 43.908 120.962 43.908C120.705 43.8953 120.451 43.9616 120.232 44.098C120.037 44.2386 119.888 44.4333 119.802 44.658C119.699 44.9533 119.651 45.2653 119.662 45.578C119.651 45.8809 119.699 46.1832 119.802 46.468C119.878 46.6954 120.025 46.8921 120.222 47.028C120.431 47.162 120.675 47.2284 120.922 47.218C121.145 47.2185 121.367 47.1917 121.582 47.138C121.767 47.0801 121.947 47.01 122.122 46.928V47.658C121.955 47.7468 121.777 47.814 121.592 47.858C121.368 47.9001 121.14 47.9202 120.912 47.918Z" fill="#26086B"></path>
  <path d="M123.902 41.568C124.025 41.5625 124.145 41.6016 124.242 41.678C124.291 41.7273 124.33 41.7869 124.354 41.8525C124.378 41.9182 124.388 41.9883 124.382 42.058C124.387 42.1277 124.377 42.1976 124.353 42.2632C124.329 42.3287 124.291 42.3883 124.242 42.438C124.143 42.5096 124.024 42.5481 123.902 42.548C123.779 42.5518 123.659 42.5129 123.562 42.438C123.511 42.3896 123.472 42.3301 123.448 42.2643C123.424 42.1984 123.415 42.1278 123.422 42.058C123.414 41.9881 123.422 41.9174 123.447 41.8514C123.471 41.7854 123.51 41.726 123.562 41.678C123.657 41.599 123.779 41.5596 123.902 41.568ZM124.312 43.288V47.838H123.482V43.288H124.312Z" fill="#26086B"></path>
  <path d="M130.002 45.5582C130.007 45.8974 129.956 46.2352 129.852 46.5582C129.767 46.8321 129.623 47.0845 129.432 47.2982C129.246 47.4998 129.017 47.657 128.762 47.7582C128.479 47.8704 128.176 47.9248 127.872 47.9182C127.581 47.9229 127.292 47.8685 127.022 47.7582C126.767 47.657 126.538 47.4998 126.352 47.2982C126.161 47.0828 126.014 46.8311 125.922 46.5582C125.818 46.2352 125.768 45.8974 125.772 45.5582C125.758 45.1181 125.843 44.6805 126.022 44.2782C126.18 43.9414 126.439 43.662 126.762 43.4782C127.109 43.3009 127.493 43.2084 127.882 43.2084C128.271 43.2084 128.655 43.3009 129.002 43.4782C129.318 43.6712 129.574 43.9481 129.742 44.2782C129.924 44.6797 130.013 45.1173 130.002 45.5582ZM126.622 45.5582C126.614 45.8633 126.658 46.1676 126.752 46.4582C126.823 46.6998 126.975 46.9096 127.183 47.0518C127.391 47.194 127.641 47.2598 127.892 47.2382C128.144 47.2451 128.391 47.1753 128.602 47.0382C128.795 46.8915 128.938 46.689 129.012 46.4582C129.109 46.1682 129.157 45.8639 129.152 45.5582C129.157 45.2523 129.11 44.9479 129.012 44.6582C128.935 44.4315 128.792 44.233 128.602 44.0882C128.388 43.9513 128.136 43.8849 127.882 43.8982C127.692 43.8749 127.5 43.9024 127.324 43.978C127.148 44.0535 126.996 44.1744 126.882 44.3282C126.664 44.6998 126.563 45.1284 126.592 45.5582H126.622ZM129.192 41.3582V41.4382C129.132 41.5182 129.042 41.6182 128.942 41.7282L128.602 42.0782L128.232 42.4282L127.892 42.7082H127.342V42.6082L127.632 42.2282C127.747 42.084 127.853 41.9338 127.952 41.7782C128.049 41.6445 128.135 41.5042 128.212 41.3582H129.192Z" fill="#26086B"></path>
  <path d="M136.663 46.5681C136.668 46.8316 136.591 47.0902 136.443 47.3081C136.282 47.5192 136.063 47.679 135.813 47.7681C135.49 47.8743 135.152 47.925 134.813 47.9181C134.534 47.9237 134.256 47.9002 133.983 47.8481C133.765 47.8024 133.554 47.7319 133.353 47.6381V46.9081C133.58 47.0081 133.813 47.0917 134.053 47.1581C134.306 47.2331 134.569 47.2702 134.833 47.2681C135.101 47.2919 135.369 47.2325 135.603 47.0981C135.678 47.05 135.739 46.9834 135.781 46.9045C135.824 46.8257 135.845 46.7374 135.843 46.6481C135.843 46.5398 135.808 46.4343 135.743 46.3481C135.656 46.2349 135.543 46.1454 135.413 46.0881C135.193 45.9723 134.966 45.8721 134.733 45.7881C134.48 45.6879 134.233 45.5744 133.993 45.4481C133.806 45.3494 133.646 45.2091 133.523 45.0381C133.408 44.8524 133.352 44.6362 133.363 44.4181C133.353 44.2398 133.392 44.0623 133.475 43.904C133.557 43.7457 133.681 43.6125 133.833 43.5181C134.21 43.2941 134.644 43.1862 135.083 43.2081C135.345 43.2035 135.607 43.2303 135.863 43.2881C136.104 43.339 136.338 43.4161 136.563 43.5181L136.293 44.1581C136.096 44.0689 135.892 43.9985 135.683 43.9481C135.474 43.8881 135.259 43.8578 135.043 43.8581C134.817 43.8467 134.593 43.895 134.393 43.9981C134.324 44.0328 134.266 44.0857 134.226 44.1509C134.185 44.2162 134.163 44.2913 134.163 44.3681C134.159 44.4816 134.198 44.5923 134.273 44.6781C134.37 44.7858 134.489 44.8711 134.623 44.9281C134.793 44.9981 135.013 45.0981 135.293 45.1981C135.539 45.2928 135.78 45.403 136.013 45.5281C136.199 45.6262 136.36 45.7666 136.483 45.9381C136.605 46.1252 136.667 46.3448 136.663 46.5681Z" fill="#26086B"></path>
  <path d="M142.002 45.5581C142.005 45.8965 141.958 46.2334 141.862 46.5581C141.774 46.8329 141.627 47.0853 141.432 47.2981C141.246 47.4997 141.017 47.6569 140.762 47.7581C140.479 47.8703 140.177 47.9247 139.872 47.9181C139.581 47.9229 139.292 47.8684 139.022 47.7581C138.77 47.6568 138.545 47.4995 138.362 47.2981C138.164 47.0863 138.014 46.8337 137.922 46.5581C137.819 46.2351 137.768 45.8973 137.772 45.5581C137.756 45.1168 137.845 44.678 138.032 44.2781C138.187 43.942 138.442 43.6624 138.762 43.4781C139.113 43.2907 139.505 43.1977 139.902 43.2081C140.286 43.201 140.665 43.294 141.002 43.4781C141.322 43.6672 141.579 43.9452 141.742 44.2781C141.925 44.6796 142.013 45.1172 142.002 45.5581ZM138.622 45.5581C138.62 45.8629 138.664 46.1664 138.752 46.4581C138.834 46.6945 138.987 46.8998 139.19 47.0451C139.394 47.1904 139.637 47.2685 139.887 47.2685C140.137 47.2685 140.381 47.1904 140.585 47.0451C140.788 46.8998 140.941 46.6945 141.022 46.4581C141.111 46.1664 141.155 45.8629 141.152 45.5581C141.155 45.2532 141.111 44.9497 141.022 44.6581C140.942 44.4307 140.796 44.2324 140.602 44.0881C140.389 43.95 140.136 43.8834 139.882 43.8981C139.693 43.8758 139.5 43.9038 139.325 43.9793C139.149 44.0548 138.997 44.175 138.882 44.3281C138.682 44.7051 138.598 45.1333 138.642 45.5581H138.622Z" fill="#26086B"></path>
  <path d="M145.332 47.918C144.95 47.929 144.571 47.843 144.232 47.668C143.911 47.4981 143.654 47.2276 143.502 46.898C143.318 46.4864 143.229 46.0387 143.242 45.588C143.222 45.1218 143.318 44.6579 143.522 44.238C143.685 43.9034 143.952 43.63 144.282 43.458C144.633 43.2841 145.02 43.1983 145.412 43.208C145.644 43.2055 145.875 43.229 146.102 43.278C146.29 43.3151 146.472 43.3791 146.642 43.468L146.402 44.138C146.239 44.0728 146.072 44.0193 145.902 43.978C145.736 43.9315 145.564 43.908 145.392 43.908C145.138 43.8967 144.887 43.963 144.672 44.098C144.474 44.2355 144.323 44.4312 144.242 44.658C144.135 44.9526 144.084 45.2647 144.092 45.578C144.085 45.8806 144.133 46.182 144.232 46.468C144.315 46.6942 144.465 46.8896 144.662 47.028C144.866 47.1631 145.107 47.2297 145.352 47.218C145.574 47.2198 145.796 47.1929 146.012 47.138C146.197 47.0836 146.378 47.0133 146.552 46.928V47.658C146.385 47.7485 146.207 47.8158 146.022 47.858C145.794 47.9015 145.563 47.9216 145.332 47.918Z" fill="#26086B"></path>
  <path d="M148.312 41.568C148.435 41.5596 148.557 41.599 148.652 41.678C148.705 41.725 148.746 41.784 148.772 41.85C148.798 41.9161 148.808 41.9873 148.802 42.058C148.808 42.1286 148.797 42.1997 148.771 42.2656C148.745 42.3315 148.704 42.3905 148.652 42.438C148.555 42.5129 148.434 42.5518 148.312 42.548C148.189 42.5502 148.07 42.5115 147.972 42.438C147.923 42.3883 147.885 42.3287 147.861 42.2632C147.836 42.1976 147.827 42.1277 147.832 42.058C147.826 41.9883 147.835 41.9182 147.86 41.8525C147.884 41.7869 147.922 41.7273 147.972 41.678C148.068 41.6007 148.189 41.5616 148.312 41.568ZM148.722 43.288V47.838H147.892V43.288H148.722Z" fill="#26086B"></path>
  <path d="M152.122 43.2079C152.573 43.1721 153.022 43.3038 153.382 43.5779C153.529 43.7354 153.641 43.9217 153.711 44.1248C153.782 44.3279 153.809 44.5436 153.792 44.7579V47.8379H153.202L153.042 47.1779C152.93 47.3309 152.799 47.4687 152.652 47.5879C152.508 47.6984 152.345 47.783 152.172 47.8379C151.957 47.8941 151.735 47.921 151.512 47.9179C151.261 47.9225 151.011 47.8713 150.782 47.7679C150.57 47.6744 150.391 47.5172 150.272 47.3179C150.143 47.0862 150.081 46.8231 150.092 46.5579C150.083 46.3521 150.127 46.1474 150.22 45.9635C150.313 45.7796 150.451 45.6227 150.622 45.5079C151.116 45.2316 151.677 45.0966 152.242 45.1179H153.022V44.8679C153.035 44.7332 153.02 44.5972 152.979 44.4683C152.938 44.3394 152.871 44.2202 152.782 44.1179C152.599 43.961 152.363 43.8821 152.122 43.8979C151.895 43.8953 151.669 43.9291 151.452 43.9979C151.241 44.0658 151.034 44.1459 150.832 44.2379L150.562 43.6379C150.8 43.5217 151.047 43.4279 151.302 43.3579C151.568 43.2748 151.844 43.2244 152.122 43.2079ZM152.972 45.6279H152.342C151.956 45.6126 151.572 45.7025 151.232 45.8879C151.128 45.9604 151.044 46.0581 150.989 46.1717C150.933 46.2854 150.906 46.4114 150.912 46.5379C150.903 46.6375 150.918 46.738 150.956 46.8304C150.994 46.9228 151.055 47.0044 151.132 47.0679C151.295 47.1922 151.498 47.2527 151.702 47.2379C152.034 47.2537 152.359 47.1429 152.612 46.9279C152.744 46.8127 152.847 46.6691 152.915 46.508C152.982 46.3468 153.012 46.1724 153.002 45.9979L152.972 45.6279Z" fill="#26086B"></path>
  <path d="M156.282 47.838H155.442V41.408H156.282V47.838Z" fill="#26086B"></path>
</svg>
